<svg xmlns="http://www.w3.org/2000/svg" viewBox="0 0 350 245.91">
  <g>
    <g>
      <path d="M347.47,123.35l-59.39-67.8a10.19,10.19,0,0,0-7.67-3.48H231V10.2A10.2,10.2,0,0,0,220.76,0H10.11A10.19,10.19,0,0,0,0,8.91V208.62a10.19,10.19,0,0,0,10.11,8.91H31.4a38.57,38.57,0,0,0,74.4,0H241.89a38.58,38.58,0,0,0,74.41,0h23.5a10.2,10.2,0,0,0,10.2-10.2V130.07A10.2,10.2,0,0,0,347.47,123.35ZM68.6,225.52a18.19,18.19,0,1,1,18.18-18.19A18.2,18.2,0,0,1,68.6,225.52Zm142-28.39H105.8a38.57,38.57,0,0,0-74.4,0H20.31V20.4H210.55Zm68.54,28.39a18.19,18.19,0,1,1,18.19-18.19A18.21,18.21,0,0,1,279.09,225.52Zm37.21-28.39a38.58,38.58,0,0,0-74.41,0H231V72.47h44.83l53.82,61.44v63.22Z" style="fill:#fff"/>
    </g>
  </g>
</svg>
